<svg width="971" height="297" viewBox="0 0 971 297" fill="none" xmlns="http://www.w3.org/2000/svg">
<path d="M267.755 11.0539C266.08 8.54061 259.713 10.8864 256.026 12.5619C247.314 16.9184 239.774 23.1179 232.234 29.3175C206.765 26.9717 182.637 10.7188 161.023 5.85972C145.608 2.34106 129.522 2.84373 115.448 6.6975C87.1308 14.405 58.1438 39.0357 49.4309 66.8498C46.2473 77.2383 45.5771 90.3076 50.4362 99.188C57.6411 112.592 74.2291 115.608 86.1255 112.76C103.886 108.571 121.312 94.3289 129.187 78.4111C129.522 77.5734 128.685 77.5734 128.517 78.076C120.474 94.664 100.87 108.404 85.9579 111.755C73.5589 114.603 57.6411 110.917 51.274 98.5178C46.9176 89.6373 47.7553 77.9085 50.4362 68.0227C57.6411 41.7166 87.2984 15.5779 115.783 9.71349C129.857 6.6975 144.937 9.04327 159.012 12.7295C182.972 18.929 204.419 33.0037 228.715 31.8308C214.975 43.3921 198.89 58.8072 181.464 75.3952C171.244 85.1134 161.19 95.5018 150.299 105.22C136.225 101.199 117.626 103.377 109.081 115.441C108.578 116.111 108.913 116.446 109.416 115.944C118.129 105.22 133.711 107.901 144.602 110.749C136.225 117.284 129.355 124.824 120.977 132.029C99.865 150.292 80.0935 168.723 56.9709 181.96C40.718 178.944 31.8376 177.939 18.9358 179.782C12.2336 180.787 0.169658 185.311 0.00210305 190.506C-0.165452 195.532 9.72031 197.208 14.9145 197.208C27.8163 197.375 40.3829 191.846 51.274 186.652C61.1598 190.338 71.0455 194.694 81.0988 197.71C104.724 204.748 127.512 208.602 150.969 203.072C166.049 199.554 179.454 191.678 190.345 181.793C198.387 174.588 205.76 165.875 209.446 155.654C211.792 149.287 212.127 142.082 208.608 136.218C201.068 123.819 184.48 128.845 175.097 134.71C162.196 142.585 151.64 152.806 144.435 166.88C144.1 167.551 144.77 167.718 145.105 167.215C152.645 153.308 162.363 143.423 175.935 136.385C184.816 131.861 197.55 131.023 203.247 139.401C206.095 143.59 205.927 149.119 204.922 154.314C202.744 164.367 196.377 173.247 189.004 180.62C179.119 190.673 165.044 198.381 150.634 201.732C141.251 203.91 131.701 203.575 122.485 201.732C99.865 197.04 83.1095 186.819 58.4789 182.128C63.6731 179.279 68.8673 175.761 74.7317 171.739C91.1521 160.011 107.405 145.601 121.815 132.699C130.193 125.159 137.565 118.122 145.943 110.749C159.85 113.598 174.427 112.928 182.637 101.869C183.14 101.366 182.637 100.528 182.135 101.199C174.595 111.084 161.19 107.733 151.472 105.555C162.196 95.8369 172.249 85.7836 182.135 76.4005C201.236 58.137 215.478 44.565 230.558 31.6632C241.282 30.6579 251.335 27.6419 259.88 21.4424C263.231 19.0966 269.431 13.5673 267.755 11.0539ZM259.21 20.2695C251.67 25.2961 242.957 28.4797 234.077 29.1499C241.449 23.453 248.319 17.5886 256.529 13.5673C260.215 11.7242 265.577 10.2162 266.582 11.7242C267.588 13.0646 262.226 18.2588 259.21 20.2695ZM1.5101 190.673C1.84521 186.149 13.239 182.463 18.9358 181.458C28.9892 179.95 40.2154 182.128 49.5984 185.982C38.8749 191.343 26.3083 196.035 14.9145 195.867C10.5581 195.867 1.34254 194.024 1.5101 190.673Z" fill="#1E2129"/>
<path d="M223.103 196.705C230.643 196.538 240.696 188.495 248.236 180.452C251.755 176.598 255.106 172.41 257.787 168.053C258.289 168.891 259.797 169.896 261.305 170.231C263.819 170.734 265.997 170.399 268.678 169.226C272.196 167.55 275.715 164.702 279.234 160.513C279.569 160.01 278.899 159.675 278.563 160.01C274.71 164.534 271.694 166.88 268.678 168.388C265.829 169.729 263.316 169.896 261.473 169.394C259.965 168.891 258.959 167.215 259.462 165.372C261.138 165.037 262.981 163.697 264.321 161.686C266.332 158.838 266.332 155.486 264.656 154.146C265.997 150.125 267.002 143.423 263.986 140.239C259.965 136.218 251.922 138.228 246.728 140.742C236.842 145.433 227.459 154.146 220.757 164.87C216.065 172.41 214.055 179.614 214.055 186.484C214.055 192.516 217.573 196.705 223.103 196.705ZM222.935 195.867C218.244 196.035 218.579 190.506 219.584 186.987C221.26 181.29 225.951 172.074 228.632 167.886C234.161 159.173 242.036 148.617 248.739 143.758C252.09 141.244 259.462 136.888 263.316 140.909C265.997 143.925 265.159 150.46 263.819 153.811C261.975 153.308 259.127 154.984 257.451 157.665C255.608 160.513 255.441 164.199 257.284 167.383C254.268 171.739 251.252 175.928 247.566 179.782C239.691 188.495 229.805 195.7 222.935 195.867Z" fill="#1E2129"/>
<path d="M273.997 183.301C275.673 178.107 277.683 173.247 281.705 167.718C292.931 166.21 311.697 155.319 316.221 147.611C319.405 142.25 316.891 137.391 310.859 138.061C303.152 138.899 293.601 145.098 286.731 150.795C282.04 154.649 278.019 159.005 274.835 163.697C271.149 169.226 267.798 174.755 267.127 181.625C266.625 187.992 267.965 196.538 277.683 196.538C284.051 196.538 291.758 191.678 296.45 188.495C305.833 181.793 316.724 171.404 325.102 160.513C325.437 160.011 324.766 159.675 324.431 160.011C315.048 171.739 304.827 181.458 295.947 187.825C288.575 193.019 282.04 195.7 277.348 195.365C271.484 195.03 272.824 186.987 273.997 183.301ZM315.551 147.109C311.195 154.649 292.428 165.54 282.375 166.713C288.239 158.167 302.649 140.574 311.027 139.234C316.724 138.396 318.064 142.752 315.551 147.109Z" fill="#1E2129"/>
<path d="M253.596 295.73C252.424 295.06 251.753 294.222 251.418 292.379C250.245 286.682 255.775 275.121 264.99 263.225C276.719 248.48 289.453 238.259 302.858 228.876C308.052 225.189 313.246 222.006 318.44 218.32C312.073 228.038 305.874 238.761 299.507 248.647C293.14 258.365 287.275 268.419 280.07 277.467C275.714 282.996 270.855 288.693 264.823 292.714C260.466 295.563 256.11 297.071 253.596 295.73ZM371.89 151.13C375.409 145.601 379.933 139.401 382.446 136.218C379.43 138.899 374.236 140.239 369.88 139.569C364.853 147.109 359.994 153.978 356.14 159.675C351.281 167.048 341.563 179.782 332.683 187.657C326.986 192.684 321.456 196.202 317.77 195.7C312.911 195.03 319.278 183.636 320.451 181.793C326.483 171.069 334.023 161.016 340.39 151.13C343.909 145.601 348.433 139.401 350.946 136.218C347.93 138.899 342.736 140.239 338.379 139.569C334.023 146.606 325.813 157.665 319.111 168.388C315.257 174.42 310.9 182.128 310.9 189.5C310.9 193.689 313.581 196.202 316.932 196.538C321.959 197.04 326.986 193.522 333.185 188.327C337.877 184.138 342.903 178.777 347.26 173.415C337.877 187.657 328.829 201.899 319.446 216.644L302.858 227.87C289.118 237.421 276.216 247.642 264.32 262.722C254.602 274.953 249.408 286.347 250.581 292.547C250.916 294.39 251.753 295.73 253.094 296.4C256.445 298.076 261.304 295.898 264.655 294.055C271.357 290.033 277.054 285.174 282.584 279.645C291.129 271.1 298.334 262.219 304.868 252.166C315.257 237.086 325.478 221.838 335.866 206.256C352.119 194.862 367.869 181.625 384.96 160.513C385.462 159.843 384.792 159.508 384.29 160.01C368.037 180.117 352.957 193.019 337.374 204.245C348.935 186.819 360.329 168.556 371.89 151.13Z" fill="#1E2129"/>
<path d="M557.082 125.829C554.066 122.981 548.369 123.483 544.683 125.159C535.97 129.348 529.267 136.72 522.9 144.093C517.371 150.627 511.004 158.67 505.139 165.707C502.459 147.946 495.086 132.364 491.735 115.608C497.097 111.587 501.956 107.565 506.983 102.706C516.031 94.3286 520.052 86.286 521.057 80.4215C521.56 77.0704 521.392 72.8816 518.879 70.2007C517.371 68.5251 514.858 68.0224 512.344 68.19C506.48 68.6927 500.28 73.0491 495.924 77.7407C489.892 84.1078 485.871 91.4802 483.692 100.026C482.017 106.728 482.017 113.597 483.525 120.3C473.639 126.834 463.586 133.034 454.37 140.406C445.825 147.276 437.615 154.146 432.421 163.864C427.059 173.75 426.053 187.489 434.934 195.867C447.333 207.428 467.44 200.056 479.001 192.181C486.708 186.819 494.081 179.782 500.113 173.08C501.788 183.133 500.113 193.186 496.092 202.402C492.238 211.617 485.033 219.995 477.158 225.859C468.11 232.562 455.376 237.421 444.317 234.237C443.144 233.902 442.977 234.907 444.149 235.243C455.711 238.091 468.11 233.735 478.163 226.865C486.373 221.168 494.081 212.79 498.605 203.575C503.967 193.019 506.815 179.447 505.139 167.383C511.507 160.01 517.706 151.8 523.738 144.763C529.77 137.558 536.472 129.85 545.018 126.164C548.201 124.824 553.228 124.321 555.239 128.007C554.066 128.342 552.055 130.018 551.05 131.693C549.374 134.542 549.542 137.725 551.217 138.396C556.244 140.406 561.773 130.353 557.082 125.829ZM506.48 102.204C501.453 106.728 496.929 110.581 491.568 114.435C490.562 108.403 489.892 101.869 491.568 95.6691C492.908 90.3073 495.254 84.4429 498.605 79.9189C502.291 75.0598 507.15 70.5358 512.679 69.698C514.355 69.3629 516.533 69.698 518.041 71.0384C520.387 73.0491 520.722 77.0704 520.219 80.254C518.711 88.2966 512.512 96.3393 506.48 102.204ZM499.945 171.404C493.578 178.106 486.206 185.646 478.163 190.84C467.272 197.71 447.836 205.083 439.458 191.511C435.101 184.138 436.274 174.923 439.29 167.048C442.809 157.832 449.344 149.789 456.381 142.92C464.759 135.045 474.142 128.007 483.692 121.64C488.049 139.401 497.264 154.313 499.945 171.404Z" fill="#1E2129"/>
<path d="M962.649 8.7081C959.8 4.51922 953.098 1.16811 947.233 0.330337C934.164 -1.68033 919.084 5.85966 908.361 12.897C894.118 22.1125 879.206 36.6898 863.958 53.2778C845.192 73.7195 826.091 97.8475 807.995 120.635C786.883 147.444 765.939 173.75 749.183 189.668C742.313 196.202 736.114 200.894 730.585 203.407C740.47 196.705 746.67 185.982 752.534 175.761C759.404 163.864 764.598 150.962 769.96 138.396C782.527 108.403 795.261 77.9084 808.833 48.4187C812.351 41.2138 816.205 34.5116 821.399 28.8147C830.28 18.7614 846.198 9.88099 859.435 14.7401C859.937 14.9076 860.105 14.405 859.602 14.2374C846.03 9.04321 828.437 18.2587 817.378 26.469C805.482 35.1818 791.91 49.5916 777.332 66.8498C764.766 81.9297 751.529 99.3555 738.292 116.111C720.364 139.234 703.105 161.518 687.858 178.106C675.291 192.014 665.238 200.391 657.53 203.575C666.411 198.381 673.113 190.003 678.978 181.458C689.701 165.707 697.744 147.779 705.451 130.688C715.84 107.733 725.223 84.108 736.784 61.8231C743.319 48.9214 750.356 35.1818 761.582 25.6312C768.117 26.3014 774.652 26.469 781.019 25.2961C787.218 24.1232 791.072 21.7774 791.24 19.2641C791.407 15.7454 783.7 15.5779 779.846 16.0805C772.808 17.0859 764.933 19.9343 759.069 23.9556C744.994 21.4423 730.92 18.2587 716.845 16.7508C698.414 14.9076 682.664 16.4156 663.73 21.945C632.397 31.3281 604.583 55.2885 595.87 86.4537C592.351 99.1879 592.184 113.598 597.881 125.829C603.745 138.396 615.809 146.439 629.046 147.109C648.818 148.114 665.908 134.375 676.464 119.295C676.799 118.624 676.129 118.122 675.794 118.624C664.233 134.71 647.645 147.276 629.381 145.266C616.982 143.925 606.594 134.877 602.907 123.819C599.054 112.257 601.064 96.8422 603.578 88.6319C613.463 56.6289 634.911 36.0196 664.568 23.9556C680.15 17.5885 698.917 15.7454 716.845 17.7561C732.595 19.4316 744.157 22.2801 757.728 24.961C745.162 34.1765 736.281 46.2405 728.406 59.98C716.175 81.4271 707.462 106.393 698.749 127.672C691.712 144.931 684.674 162.524 675.291 178.944C669.594 188.998 662.725 200.224 651.163 205.083C650.158 205.418 650.326 205.921 651.331 205.921C660.714 205.921 673.448 195.365 688.696 179.112C703.943 162.524 721.201 139.904 739.297 116.614C752.367 99.8582 765.771 82.7675 778.17 67.6875C795.428 47.0782 811.346 30.4903 824.583 23.1178C808.163 35.3494 796.266 54.2831 788.224 72.2115C772.306 108.571 762.923 144.093 748.681 173.415C743.486 184.306 736.281 200.391 725.223 205.586C723.882 206.088 724.217 206.423 725.39 206.256C732.26 205.25 740.47 199.554 749.686 190.841C766.609 175.09 786.883 149.455 808.833 121.473C826.761 98.8528 846.03 74.8924 864.629 54.4507C880.211 37.36 895.459 22.1125 910.036 13.2321C921.262 6.36233 934.332 2.341 946.563 4.35166C952.428 5.18944 958.125 8.37299 961.308 13.0645C966.335 20.7721 964.659 28.8147 959.968 35.3494C959.633 35.852 959.968 36.5223 960.47 35.852C965.832 27.8094 968.345 17.2534 962.649 8.7081ZM779.846 16.9183C783.867 16.4156 790.402 16.7508 790.067 19.2641C789.899 20.7721 786.883 22.7827 781.354 24.1232C776.83 25.1285 770.463 25.4636 762.755 24.6258C767.279 20.437 773.814 17.7561 779.846 16.9183Z" fill="#1E2129"/>
<path d="M842.512 119.797C844.355 120.97 848.041 118.457 850.89 114.435C853.57 110.414 854.408 106.393 852.565 105.22C850.722 104.047 847.036 106.56 844.187 110.581C841.506 114.603 840.669 118.792 842.512 119.797ZM812.352 168.388C808.666 174.42 804.142 182.128 804.142 189.5C804.142 195.029 809.001 197.71 813.525 195.867C816.708 194.694 820.059 192.348 823.578 189.165C831.621 182.128 840.501 171.069 848.879 160.513C849.214 160.01 848.544 159.508 848.209 160.01C839.831 170.399 830.95 181.625 823.075 188.662C819.557 191.846 815.703 194.527 813.022 195.197C804.644 197.208 812.519 183.803 813.692 181.792C819.724 171.069 827.264 161.016 833.631 151.13C837.15 145.601 841.674 139.401 844.187 136.217C841.171 138.898 835.977 140.239 831.621 139.569C827.264 146.606 819.054 157.665 812.352 168.388Z" fill="#1E2129"/>
<path d="M844.458 195.532C838.091 195.03 842.95 186.652 844.458 183.636C849.317 174.085 855.349 165.707 861.214 156.827L921.534 65.5094C925.555 59.3099 932.425 49.2565 935.776 45.0677C932.76 47.7485 927.398 49.089 923.042 48.4188C924.717 45.9054 889.698 98.8529 852.836 154.314C847.307 162.859 841.777 171.404 838.426 181.29C836.583 186.652 836.416 196.538 844.123 196.538C849.653 196.538 856.355 191.343 863.392 183.803C869.927 176.934 876.629 168.221 882.828 160.513C883.331 159.843 882.493 159.508 882.158 160.011C876.126 167.383 869.424 176.263 862.722 183.301C855.852 190.673 848.815 195.867 844.458 195.532Z" fill="#1E2129"/>
<path d="M879.017 195.532C872.65 195.03 877.509 186.652 879.017 183.636C883.876 174.085 889.908 165.707 895.772 156.827L956.092 65.5094C960.114 59.3099 966.983 49.2565 970.335 45.0677C967.319 47.7485 961.957 49.089 957.6 48.4188C959.276 45.9054 924.257 98.8529 887.395 154.314C881.865 162.859 876.336 171.404 872.985 181.29C871.142 186.652 870.974 196.538 878.682 196.538C884.211 196.538 890.913 191.343 897.951 183.803C904.485 176.934 911.188 168.221 917.387 160.513C917.89 159.843 917.052 159.508 916.717 160.011C910.685 167.383 903.983 176.263 897.28 183.301C890.411 190.673 883.373 195.867 879.017 195.532Z" fill="#1E2129"/>
</svg>
