<svg width="1034" height="299" viewBox="0 0 1034 299" fill="none" xmlns="http://www.w3.org/2000/svg">
<path d="M82.8135 198.668C106.5 205.724 129.487 209.634 153.195 204.046H153.196C168.467 200.483 182.018 192.514 193.011 182.537H193.012C201.112 175.281 208.618 166.438 212.385 155.999L212.604 155.384C214.815 148.99 215.076 141.721 211.466 135.703L211.463 135.698C207.443 129.087 200.989 127.16 194.474 127.618C188.003 128.072 181.357 130.87 176.576 133.857C163.546 141.81 152.848 152.158 145.545 166.424L145.54 166.433C145.397 166.718 145.29 167.089 145.371 167.487C145.461 167.925 145.761 168.272 146.167 168.424C146.858 168.684 147.514 168.325 147.87 167.864L147.937 167.77L147.962 167.732L147.984 167.692C155.437 153.947 165.015 144.211 178.396 137.273H178.395C182.7 135.081 187.927 133.792 192.73 134.053C197.527 134.314 201.797 136.107 204.42 139.963C207.03 143.802 206.936 148.979 205.94 154.123H205.939C203.814 163.902 197.599 172.61 190.297 179.912L190.291 179.918C180.547 189.828 166.645 197.446 152.408 200.757C143.196 202.896 133.796 202.574 124.688 200.753C113.464 198.425 103.692 194.725 93.582 190.992C84.2087 187.53 74.5613 184.047 63.3027 181.675C67.1189 179.445 70.9798 176.878 75.1279 174.048L77.2969 172.564L77.3047 172.559L77.3125 172.553C91.7253 162.258 106.001 149.912 118.995 138.345L124.481 133.444L124.483 133.442C132.775 125.979 140.005 119.084 148.234 111.827C162.052 114.571 176.924 113.897 185.415 102.498C185.921 101.929 185.98 101.118 185.595 100.539C185.38 100.217 184.972 99.9135 184.425 99.9525C183.917 99.9888 183.558 100.304 183.34 100.593V100.592C179.814 105.215 174.916 106.779 169.598 106.901C164.909 107.008 159.998 105.991 155.564 105C164.434 96.8957 172.872 88.5769 181.114 80.6664L184.823 77.1254L184.826 77.1234C203.831 58.9525 218.004 45.4474 232.972 32.6273C243.696 31.5809 253.815 28.5245 262.454 22.2611L263.131 21.7728C264.779 20.5507 266.856 18.7786 268.452 16.973C269.36 15.9468 270.16 14.8562 270.619 13.809C271.067 12.7856 271.29 11.5529 270.588 10.4994C269.946 9.53646 268.903 9.12692 267.854 9.00037C266.807 8.87425 265.616 9.00796 264.437 9.25916C262.069 9.76347 259.477 10.804 257.612 11.6517L257.579 11.6674C248.874 16.0199 241.341 22.1804 233.92 28.2816C221.492 27.0636 209.351 22.5161 197.567 17.6078C185.712 12.6696 174.16 7.3385 163.242 4.88416L163.241 4.88513C147.666 1.33065 131.416 1.83595 117.184 5.73279V5.73376C88.5957 13.5157 59.3078 38.3591 50.4766 66.5511L50.4746 66.557C47.2565 77.0583 46.5121 90.4454 51.5586 99.6683C59.0642 113.623 76.2225 116.639 88.3584 113.733H88.3574C106.415 109.473 124.079 95.0319 132.083 78.8549L132.101 78.8187L132.115 78.7826C132.243 78.4629 132.331 78.0539 132.203 77.639C132.057 77.1683 131.684 76.8598 131.258 76.765C130.567 76.6114 129.872 77.0176 129.605 77.6625C125.668 85.7702 118.882 93.2296 111.207 99.0844C103.523 104.946 95.0225 109.142 87.7383 110.779L87.7344 110.78C75.5886 113.57 60.2554 109.9 54.1719 98.0775L53.9785 97.6742C49.9993 89.1653 50.785 77.9322 53.4004 68.2865L53.5703 67.681C57.2222 54.967 66.2019 42.2536 77.7939 31.9496C89.1985 21.8122 103.051 14.0787 116.668 10.9779L117.984 10.6927L117.992 10.6908C131.835 7.72455 146.731 10.0226 160.759 13.6967L160.762 13.6976C172.682 16.7818 183.911 21.8046 195.396 25.9847C205.939 29.8224 216.621 32.9113 227.912 32.8978C214.629 44.2552 199.288 58.9514 182.775 74.6703C172.637 84.31 162.762 94.5066 152.038 104.11C144.979 102.185 136.87 101.773 129.413 103.319C121.768 104.903 114.725 108.566 110.265 114.863V114.864C110.097 115.091 109.956 115.344 109.884 115.615C109.821 115.851 109.754 116.336 110.09 116.756C110.487 117.253 111.066 117.221 111.373 117.127C111.604 117.057 111.803 116.931 111.969 116.792L112.123 116.651L112.159 116.614L112.191 116.574C116.311 111.503 122.073 109.561 128.241 109.255C133.704 108.985 139.407 110.005 144.4 111.224C140.787 114.157 137.435 117.261 134.103 120.411C130.28 124.023 126.491 127.688 122.325 131.271L122.322 131.273C101.263 149.491 81.6682 167.748 58.7881 180.911C42.7294 177.94 33.7592 176.94 20.7939 178.792L20.7871 178.793C17.3357 179.311 12.5453 180.723 8.57715 182.675C6.59368 183.651 4.76601 184.785 3.4082 186.047C2.0667 187.294 1.0578 188.785 1.00293 190.472L1.00195 190.775C1.04694 192.27 1.79949 193.485 2.87109 194.425C3.99505 195.412 5.51675 196.145 7.12793 196.689C10.3511 197.778 14.2268 198.206 16.9014 198.207L17.5186 198.211C30.3085 198.202 42.6969 192.792 53.3184 187.738C62.9997 191.365 72.8551 195.681 82.8115 198.668H82.8135ZM239.49 27.7562C245.855 22.7644 251.904 17.9255 258.969 14.4652L258.977 14.4613C260.757 13.5709 262.941 12.765 264.773 12.3666C265.695 12.1662 266.474 12.0805 267.046 12.1146C267.411 12.1364 267.596 12.203 267.684 12.2455C267.648 12.3745 267.569 12.5728 267.413 12.8422C267.059 13.4543 266.447 14.2285 265.671 15.0658C264.124 16.7348 262.088 18.4816 260.655 19.4369C254.24 23.714 246.969 26.6259 239.49 27.7562ZM16.9297 194.868H16.9141C14.8376 194.867 11.5446 194.422 8.8125 193.572C7.44273 193.145 6.28465 192.639 5.5 192.082C4.69889 191.514 4.49758 191.056 4.50879 190.734C4.56765 190.013 5.08689 189.167 6.21094 188.236C7.31717 187.319 8.86013 186.447 10.6211 185.659C14.1344 184.086 18.3212 182.936 21.1006 182.445C30.1894 181.085 40.3143 182.806 49.1152 186.085C38.9117 190.99 27.3752 195.021 16.9297 194.868Z" fill="white" stroke="white" stroke-width="2"/>
<path d="M225.125 197.705C229.196 197.615 233.796 195.421 238.237 192.354C242.431 189.459 246.606 185.697 250.245 181.896L250.966 181.136L250.975 181.127C254.225 177.567 257.347 173.707 259.942 169.68C260.161 169.857 260.395 170.024 260.634 170.176C261.345 170.626 262.205 171.012 263.088 171.208L263.109 171.212C265.865 171.763 268.253 171.379 271.078 170.143L271.107 170.129C274.559 168.485 277.963 165.786 281.327 161.94L281.999 161.156L282.035 161.114L282.065 161.067C282.266 160.767 282.385 160.379 282.295 159.964C282.207 159.559 281.951 159.269 281.68 159.1C281.174 158.784 280.399 158.762 279.856 159.304L279.828 159.332L279.802 159.362C276.015 163.808 273.104 166.054 270.246 167.486C267.586 168.737 265.331 168.856 263.764 168.437C262.916 168.141 262.269 167.26 262.338 166.172C264.112 165.594 265.861 164.171 267.139 162.263L267.34 161.967C268.316 160.477 268.826 158.857 268.871 157.381C268.911 156.079 268.583 154.796 267.792 153.866C268.404 151.865 268.915 149.346 268.955 146.895C268.998 144.229 268.491 141.429 266.712 139.551L266.703 139.541L266.693 139.532C264.372 137.211 260.985 136.718 257.698 137.045C254.389 137.374 250.968 138.548 248.299 139.839C238.215 144.624 228.697 153.48 221.909 164.34L221.908 164.341C217.13 172.021 215.055 179.407 215.055 186.484C215.055 189.69 215.991 192.495 217.752 194.514C219.525 196.546 222.068 197.705 225.103 197.705H225.125ZM224.899 194.868C223.934 194.903 223.344 194.646 222.959 194.301C222.556 193.939 222.263 193.375 222.102 192.604C221.773 191.035 222.061 188.957 222.546 187.262H222.545C224.085 182.032 228.258 173.688 230.955 169.257L231.475 168.425L231.477 168.422C237.004 159.712 244.792 149.304 251.325 144.567L251.339 144.558C252.974 143.331 255.555 141.685 258.15 140.833C260.778 139.97 263.067 140.022 264.581 141.59C265.659 142.815 266.115 144.877 266.075 147.217C266.041 149.198 265.652 151.207 265.149 152.724C264.11 152.716 263.024 153.107 262.058 153.687C260.765 154.462 259.522 155.665 258.604 157.135V157.136C256.674 160.128 256.415 163.945 258.112 167.315C255.217 171.483 252.331 175.445 248.843 179.091L248.833 179.101L248.824 179.111C244.93 183.42 240.549 187.343 236.314 190.2C232.048 193.079 228.055 194.79 224.911 194.867L224.899 194.868Z" fill="white" stroke="white" stroke-width="2"/>
<path d="M279.684 197.538C283.094 197.538 286.776 196.245 290.133 194.609C293.507 192.964 296.655 190.922 299.011 189.323L299.021 189.316L299.031 189.309C308.201 182.759 318.775 172.739 327.096 162.15L327.895 161.123L327.915 161.096L327.934 161.068C328.134 160.767 328.253 160.379 328.163 159.964C328.076 159.56 327.819 159.27 327.548 159.1C327.043 158.784 326.267 158.761 325.725 159.303L325.686 159.342L325.65 159.386C316.317 171.053 306.164 180.702 297.371 187.007L296.687 187.484C289.642 192.331 283.61 194.667 279.42 194.368L279.412 194.367H279.405C278.197 194.298 277.457 193.85 276.97 193.236C276.453 192.584 276.145 191.644 276.029 190.49C275.798 188.174 276.381 185.394 276.949 183.608L277.264 182.65C278.823 177.987 280.736 173.587 284.272 168.647C290.016 167.773 297.435 164.662 303.979 160.854C307.347 158.895 310.515 156.733 313.136 154.563C315.743 152.404 317.867 150.191 319.084 148.118H319.083C320.786 145.247 321.082 142.305 319.874 140.094C318.642 137.839 316.044 136.701 312.749 137.067V137.068C308.701 137.508 304.25 139.34 299.991 141.734C295.717 144.137 291.562 147.148 288.093 150.025V150.026C283.335 153.935 279.248 158.36 276.008 163.135L276.003 163.142C272.315 168.674 268.829 174.387 268.132 181.528L268.131 181.538V181.546C267.874 184.798 268.07 188.746 269.681 191.921C270.495 193.527 271.677 194.946 273.345 195.958C275.012 196.969 277.105 197.538 279.684 197.538ZM286.593 165.306C289.573 161.183 293.915 155.742 298.481 150.962C301.152 148.167 303.88 145.617 306.441 143.69C309.025 141.746 311.332 140.521 313.177 140.223C315.772 139.843 316.992 140.667 317.466 141.656C317.998 142.766 317.857 144.576 316.685 146.609V146.61C315.683 148.343 313.799 150.348 311.305 152.418C308.825 154.477 305.802 156.552 302.593 158.436C297.118 161.65 291.204 164.249 286.593 165.306Z" fill="white" stroke="white" stroke-width="2"/>
<path d="M254.646 297.295C256.649 298.296 258.995 298.101 261.14 297.511C263.035 296.989 264.905 296.12 266.48 295.285L267.137 294.931L267.153 294.922L267.17 294.912C273.965 290.835 279.726 285.917 285.291 280.352C293.879 271.764 301.123 262.836 307.692 252.733L311.582 247.067C320.609 233.878 329.54 220.548 338.595 206.966C354.345 195.911 369.642 183.103 386.132 163.106L387.737 161.143L387.749 161.128L387.76 161.113C387.963 160.842 388.138 160.489 388.138 160.081C388.138 159.634 387.92 159.217 387.531 158.974C386.819 158.529 386.019 158.867 385.582 159.304L385.545 159.341L385.512 159.382C370.892 177.468 357.231 189.695 343.284 200.134C348.031 192.907 352.754 185.566 357.474 178.229C362.496 170.421 367.514 162.618 372.56 154.957L374.724 151.683L374.729 151.675L374.734 151.667C378.233 146.169 382.737 139.997 385.231 136.837L383.782 135.471C381.02 137.926 376.137 139.212 372.032 138.58L371.401 138.483L371.048 139.014C366.015 146.563 361.191 153.382 357.312 159.115L357.306 159.125C352.47 166.462 342.808 179.115 334.021 186.908C331.199 189.398 328.451 191.484 325.98 192.882C323.473 194.3 321.412 194.915 319.906 194.71C319.522 194.657 319.344 194.519 319.238 194.38C319.112 194.214 319 193.926 318.973 193.446C318.917 192.465 319.234 191.078 319.79 189.522C320.751 186.835 322.284 184.018 323.028 182.766L323.295 182.329L323.31 182.307L323.322 182.283C329.34 171.586 336.805 161.648 343.23 151.672L343.233 151.667C346.732 146.169 351.237 139.997 353.731 136.837L352.281 135.471C349.519 137.926 344.636 139.212 340.531 138.58L339.878 138.479L339.529 139.042C337.367 142.534 334.243 147.032 330.801 152.028C327.368 157.01 323.631 162.47 320.268 167.851C316.426 173.863 311.9 181.8 311.9 189.5C311.9 191.816 312.646 193.74 313.921 195.138C315.192 196.531 316.936 197.343 318.833 197.532C321.622 197.811 324.343 196.965 327.102 195.444C329.509 194.117 332.007 192.242 334.674 190.052L335.827 189.094L335.84 189.084L335.852 189.073C337.593 187.518 339.378 185.805 341.157 183.992C334.343 194.505 327.615 205.085 320.712 215.934L304.297 227.042L304.287 227.049C290.512 236.624 277.52 246.911 265.537 262.1L264.633 263.253C260.176 269.005 256.715 274.563 254.457 279.479C252.069 284.677 250.951 289.316 251.598 292.732C251.97 294.771 252.939 296.441 254.646 297.295ZM260.239 294.833C258.389 295.37 256.986 295.336 256.071 294.851C255.587 294.571 255.264 294.29 255.021 293.933C254.768 293.561 254.554 293.036 254.402 292.2L254.4 292.188L254.397 292.178C254.146 290.955 254.241 289.326 254.721 287.327C255.198 285.341 256.039 283.055 257.214 280.552C259.563 275.545 263.206 269.743 267.781 263.837H267.78C278.695 250.118 290.491 240.336 302.934 231.459L305.432 229.695L305.437 229.691C308.018 227.859 310.601 226.15 313.2 224.432C314.43 223.618 315.663 222.802 316.898 221.972C314.626 225.551 312.372 229.223 310.121 232.898C306.977 238.033 303.842 243.174 300.666 248.105V248.106C294.262 257.881 288.453 267.846 281.288 276.844L281.285 276.848C276.934 282.37 272.157 287.955 266.268 291.882V291.883C264.143 293.271 262.059 294.305 260.239 294.833Z" fill="white" stroke="white" stroke-width="2"/>
<path d="M445.91 236.214C457.488 239.066 469.764 234.916 479.767 228.335L480.728 227.691L480.733 227.686C489.064 221.906 496.894 213.403 501.503 204.015H501.502C506.872 193.436 509.761 179.872 508.187 167.698C511.283 164.097 514.339 160.309 517.344 156.574C520.446 152.717 523.493 148.918 526.497 145.414L526.505 145.405C532.561 138.172 539.121 130.66 547.414 127.083H547.413C548.894 126.461 550.778 126.047 552.48 126.197C553.787 126.312 554.919 126.748 555.735 127.621C555.291 127.895 554.843 128.231 554.427 128.592C553.593 129.313 552.762 130.229 552.192 131.179L552.188 131.186C551.266 132.752 550.828 134.446 550.877 135.895C550.924 137.288 551.46 138.769 552.846 139.324C554.471 139.974 556.097 139.619 557.449 138.761C558.786 137.914 559.912 136.549 560.687 135.012C562.204 131.999 562.575 127.809 559.775 125.109L559.769 125.102C558.01 123.441 555.545 122.82 553.143 122.798C550.728 122.775 548.239 123.353 546.269 124.249L546.259 124.253L546.249 124.258C537.324 128.548 530.5 136.079 524.144 143.439L524.137 143.447C519.059 149.448 513.212 156.795 507.771 163.377C506.358 155.225 504.027 147.522 501.642 139.979C499.102 131.949 496.511 124.118 494.843 116.025C500.026 112.114 504.765 108.173 509.662 103.44L510.507 102.645C518.807 94.7068 522.766 87.0441 523.936 81.1716L524.043 80.5906L524.045 80.5808L524.046 80.5701C524.558 77.1575 524.452 72.5667 521.621 69.533L521.622 69.532C519.809 67.5174 516.908 67.0169 514.278 67.1921L514.259 67.1941C508.026 67.7284 501.61 72.3014 497.191 77.0603V77.0613C491.044 83.5531 486.942 91.0755 484.724 99.7791L484.723 99.783C483.064 106.418 483.01 113.209 484.401 119.842C474.732 126.217 464.828 132.359 455.745 139.626L455.744 139.627C447.212 146.486 438.844 153.469 433.541 163.388C428.072 173.472 426.897 187.773 436.248 196.594L436.252 196.598C442.76 202.667 451.248 203.712 459.451 202.299C467.392 200.93 475.195 197.243 481.008 193.382L481.563 193.008L481.572 193.002C488.759 188.002 495.638 181.575 501.422 175.319C502.522 184.462 500.852 193.574 497.175 202.002L497.172 202.01L497.169 202.016C493.397 211.037 486.32 219.279 478.561 225.057V225.058C469.626 231.676 457.219 236.335 446.594 233.276H446.592C446.182 233.159 445.737 233.121 445.324 233.255C444.888 233.395 444.463 233.752 444.367 234.324C444.279 234.856 444.521 235.306 444.795 235.591C445.077 235.884 445.457 236.085 445.875 236.205L445.893 236.21L445.91 236.214ZM494.299 112.665C493.487 107.327 493.088 101.773 494.388 96.4919L494.533 95.9304L494.535 95.9207L494.538 95.9119C495.857 90.636 498.156 84.9086 501.401 80.5232L502.099 79.6277C505.64 75.1893 510.028 71.4148 514.829 70.6873L514.853 70.6833L514.876 70.6785C516.314 70.391 518.152 70.6973 519.377 71.7859L519.391 71.7976C520.33 72.6027 520.926 73.8669 521.216 75.3933C521.503 76.907 521.469 78.5839 521.233 80.0847C519.781 87.8004 513.786 95.6463 507.805 101.467C503.211 105.6 499.054 109.157 494.299 112.665ZM459.73 197.851C452.686 198.826 446.221 197.308 442.318 191.002L442.129 190.674C438.35 183.964 439.234 175.6 441.951 168.136L442.225 167.405V167.404C445.669 158.383 452.088 150.461 459.078 143.636C467.057 136.138 475.964 129.397 485.072 123.262C487.273 131.692 490.508 139.499 493.517 147.14C496.639 155.069 499.521 162.83 500.878 171.074C494.585 177.689 487.408 184.971 479.62 190.001V190.002C474.241 193.393 466.801 196.873 459.73 197.851Z" fill="white" stroke="white" stroke-width="2"/>
<path d="M753.006 237.988C753.31 238.015 753.667 237.994 754.042 237.94H754.045C758.144 237.341 762.565 235.358 767.24 232.325C771.922 229.288 776.916 225.16 782.171 220.198L783.077 219.35C802.179 201.357 824.922 172.624 849.438 141.405L853.272 136.578C872.527 112.369 892.977 87.1475 912.753 65.4365C930.174 46.3517 947.141 29.3915 963.327 19.3369L964.098 18.8633L964.1 18.8623C976.724 11.146 991.32 6.69399 1004.89 8.92285L1004.91 8.9248L1004.92 8.92578C1011.34 9.84296 1017.54 13.3287 1020.97 18.3809C1026.38 26.6748 1024.63 35.334 1019.47 42.5127L1019.46 42.5264L1019.45 42.541C1019.25 42.831 1019.15 43.1552 1019.13 43.4688C1019.11 43.7634 1019.16 44.1382 1019.39 44.4619C1019.67 44.8425 1020.16 45.0817 1020.7 44.9492C1021.14 44.8423 1021.45 44.532 1021.65 44.2666L1021.67 44.2441L1021.68 44.2207C1027.87 34.9423 1030.95 22.5005 1024.15 12.3223L1024.15 12.3145C1022.41 9.75761 1019.55 7.52485 1016.32 5.81738C1013.09 4.10422 1009.41 2.87733 1005.96 2.38477L1005.96 2.38574C998.308 1.21293 990.138 2.83491 982.398 5.71582C974.647 8.60143 967.253 12.7766 961.127 16.792V16.793C945.351 26.9906 928.9 42.9006 912.141 60.9961L910.518 62.7549C889.178 85.9731 867.464 113.371 846.921 139.211L846.918 139.214C823.678 168.691 800.678 197.554 782.022 215.688L780.23 217.41C776.429 221.022 772.824 224.119 769.417 226.666C775.954 219.6 780.901 211.025 785.592 202.859H785.591C793.429 189.3 799.356 174.596 805.432 160.372L805.435 160.365L810.797 147.584C823.332 117.724 836.08 87.6046 849.554 58.3594L850.304 56.8408C853.954 49.5377 857.947 42.7836 863.124 36.957L863.664 36.3584L863.674 36.3467C868.626 30.7464 875.548 25.4706 883.057 22.2793C890.57 19.0864 898.572 18.0182 905.772 20.6582L905.786 20.6631L905.801 20.668C906.338 20.8468 907.287 20.7947 907.588 19.8936C907.881 19.0139 907.196 18.4125 906.663 18.2168L906.664 18.2148C898.64 15.1473 889.521 16.3648 880.925 19.4434C872.313 22.5275 864.092 27.5261 857.763 32.2197V32.2207C844.151 42.1798 828.676 58.6029 812.121 78.1807L812.116 78.1855C797.835 95.303 782.781 115.098 767.768 134.081L767.762 134.089C747.394 160.328 727.825 185.567 710.545 204.345L710.539 204.351C703.194 212.47 696.635 218.887 690.838 223.684C694.46 219.793 697.721 215.529 700.756 211.209L702.021 209.389L702.022 209.386C714.257 191.436 723.424 171.018 732.169 151.649C743.623 126.368 753.948 100.502 766.504 75.9561L767.727 73.585L767.731 73.5762H767.73C775.104 59.0348 782.944 43.7796 795.327 33.1104C802.417 33.8155 809.56 33.994 816.561 32.7988L817.251 32.6758L817.256 32.6748C820.845 31.9965 823.822 30.9685 825.953 29.7012C827.975 28.4992 829.451 26.9457 829.658 25.0967L829.675 24.917V24.9082L829.676 24.8984C829.745 23.4516 828.968 22.3929 827.902 21.6885C826.873 21.0077 825.503 20.5968 824.093 20.3496C821.255 19.8523 817.866 19.954 815.609 20.248L815.597 20.25C807.608 21.39 798.685 24.5815 791.924 29.1162C776.133 26.2872 760.199 22.707 744.304 21.0059L744.296 21.0049C723.233 18.901 705.219 20.6259 683.602 26.9316L683.595 26.9336C647.76 37.6528 615.865 65.0447 605.859 100.793L605.858 100.796C601.819 115.398 601.602 131.999 608.199 146.147V146.148C615.013 160.733 629.039 170.081 644.445 170.86L645.519 170.902C667.656 171.518 686.666 156.337 698.59 139.693L699.161 138.887L699.203 138.826L699.236 138.761C699.601 138.033 699.486 137.188 698.905 136.681C698.625 136.436 698.229 136.277 697.79 136.332C697.35 136.387 696.999 136.64 696.77 136.969L696.153 137.815C683.134 155.543 664.865 168.963 644.985 166.777L644.983 166.776C631.312 165.3 619.83 155.319 615.762 143.128C613.628 136.733 613.105 129.22 613.481 122.116C613.858 115.02 615.129 108.402 616.53 103.828L617.062 102.151C628.232 67.6855 651.539 45.1946 683.648 31.7422L685.209 31.0986L685.211 31.0977C702.72 23.9515 723.857 21.8677 744.086 24.1338L744.091 24.1348C761.069 25.9389 773.72 28.9412 788.238 31.8574C774.753 42.242 765.057 55.55 756.458 70.5361L756.457 70.5381C742.525 94.94 732.588 123.37 722.723 147.437L722.722 147.438C714.724 167.029 706.757 186.919 696.142 205.476L696.141 205.479C689.653 216.914 681.999 229.332 669.231 234.695C668.908 234.809 668.595 234.958 668.349 235.169C668.11 235.374 667.719 235.839 667.88 236.48C668.026 237.064 668.521 237.316 668.782 237.413C669.092 237.528 669.446 237.57 669.802 237.57C675.467 237.57 681.968 234.407 689.117 229.081C695.85 224.065 703.294 217.026 711.343 208.559L712.961 206.847L712.968 206.839C730.317 187.985 749.947 162.285 770.48 135.888C785.32 116.885 800.532 97.5109 814.602 80.4189C828.244 64.1459 841.094 50.1591 852.648 40.3711C840.512 53.3056 831.189 69.2482 824.34 84.498L824.336 84.5059C815.282 105.165 808.087 125.584 801.146 144.96C794.199 164.351 787.508 182.689 779.449 199.263L779.445 199.27C776.486 205.468 772.995 213.053 768.683 219.832C764.365 226.618 759.314 232.449 753.306 235.275C752.919 235.423 752.58 235.583 752.328 235.764C752.203 235.854 752.027 235.998 751.897 236.21C751.753 236.446 751.621 236.862 751.841 237.303C752.024 237.67 752.347 237.821 752.499 237.879C752.677 237.946 752.857 237.975 753.006 237.988ZM817.234 29.3857C812.69 30.3944 806.405 30.8007 798.792 30.1621C803.607 26.4326 809.941 24.0064 815.862 23.1826L816.722 23.0898C818.791 22.9014 821.258 22.908 823.239 23.2246C824.383 23.4075 825.27 23.6797 825.82 24.0098C826.35 24.327 826.375 24.5572 826.354 24.7188L826.353 24.7295L826.351 24.7402C826.336 24.8713 826.239 25.143 825.87 25.5381C825.511 25.9233 824.954 26.3589 824.176 26.8145C822.623 27.7227 820.303 28.6422 817.234 29.3867V29.3857Z" fill="white" stroke="white" stroke-width="2"/>
<path d="M886.953 140.578C887.757 141.086 888.694 141.147 889.598 140.963C890.496 140.779 891.432 140.341 892.351 139.746C894.076 138.628 895.887 136.855 897.48 134.712L897.796 134.278L897.805 134.267L897.812 134.255C899.382 131.917 900.447 129.529 900.836 127.497C901.207 125.557 901.021 123.495 899.415 122.48C898.611 121.972 897.673 121.911 896.77 122.096C895.871 122.279 894.935 122.716 894.017 123.312C892.177 124.504 890.239 126.442 888.572 128.779L888.563 128.791L888.556 128.803C886.983 131.146 885.919 133.582 885.531 135.634C885.338 136.657 885.301 137.645 885.501 138.499C885.7 139.349 886.152 140.12 886.953 140.578ZM846.861 225.724C849.173 227.182 852.173 227.424 855.01 226.276L855.009 226.275C858.778 224.889 862.673 222.163 866.685 218.561L867.549 217.799C875.357 210.821 883.789 200.73 891.902 190.651L895.484 186.183L895.51 186.15L895.533 186.115C896.04 185.36 895.793 184.487 895.205 184.049C894.923 183.839 894.541 183.712 894.129 183.773C893.73 183.833 893.398 184.055 893.167 184.362C883.646 196.087 873.643 208.64 864.795 216.492L864.79 216.496C862.825 218.262 860.775 219.879 858.855 221.143C856.92 222.416 855.18 223.287 853.823 223.624V223.625C852.726 223.885 852.028 223.86 851.606 223.732C851.236 223.62 851.038 223.421 850.912 223.122C850.765 222.775 850.702 222.246 850.776 221.514C850.85 220.794 851.048 219.959 851.338 219.055C852.216 216.318 853.843 213.247 854.887 211.398L855.687 210.015L855.694 210.001C862.09 198.71 869.934 188.161 876.884 177.645L878.262 175.542L878.265 175.537C882.232 169.345 887.339 162.395 890.169 158.836L888.724 157.464C885.559 160.257 879.983 161.713 875.295 160.997L874.644 160.897L874.295 161.456C871.843 165.39 868.3 170.455 864.399 176.077C860.507 181.687 856.27 187.833 852.459 193.889L852.453 193.897C850.364 197.292 848.006 201.208 846.172 205.33C844.34 209.448 843 213.837 843 218.183C843 221.612 844.532 224.254 846.861 225.724Z" fill="white" stroke="white" stroke-width="2"/>
<path d="M889.616 227C893.032 227 896.685 225.403 900.414 222.827C904.158 220.241 908.086 216.591 912.076 212.312L913.468 210.827C919.504 204.292 925.632 196.511 931.413 189.26L934.055 185.957L934.065 185.944L934.076 185.931C934.314 185.613 934.495 185.198 934.443 184.732C934.389 184.245 934.097 183.876 933.738 183.677C933.093 183.318 932.233 183.482 931.745 184.13L930.455 185.718C923.965 193.737 916.926 202.953 909.871 210.367L909.863 210.375C906.019 214.504 902.153 217.996 898.664 220.4C895.124 222.841 892.161 224.029 890.072 223.869L890.073 223.868C888.525 223.746 887.91 223.186 887.634 222.588C887.308 221.88 887.308 220.814 887.636 219.447C888.286 216.734 889.996 213.667 890.886 211.888L891.4 210.887C896.755 200.585 903.293 191.474 909.729 181.72L977.77 78.6279L977.774 78.6211C982.309 71.6238 990.035 60.3107 993.781 55.624L992.335 54.2529C989.191 57.0498 983.458 58.5139 978.788 57.7949L978.734 58.1426C978.315 58.0001 977.915 58.0681 977.897 58.0908C977.891 58.0997 977.882 58.1125 977.879 58.1172C977.874 58.1241 977.869 58.1307 977.866 58.1348C977.854 58.1524 977.833 58.1849 977.804 58.2285L976.935 59.5332L976.944 59.5352C976.852 59.6754 976.752 59.8258 976.646 59.9863C975.666 61.4713 974.116 63.8177 972.072 66.9092C967.985 73.0921 961.926 82.2545 954.508 93.4619C939.671 115.877 919.401 146.473 898.611 177.778L898.604 177.789C892.379 187.419 886.071 197.166 882.244 208.462C881.161 211.614 880.558 216.108 881.387 219.878C881.803 221.773 882.599 223.558 883.955 224.878C885.332 226.218 887.209 227 889.616 227Z" fill="white" stroke="white" stroke-width="2"/>
<path d="M928.616 227C932.032 227 935.685 225.403 939.414 222.827C943.158 220.241 947.086 216.591 951.076 212.312L952.468 210.827C958.504 204.292 964.632 196.511 970.413 189.26L973.055 185.957L973.065 185.944L973.076 185.931C973.314 185.613 973.495 185.198 973.443 184.732C973.389 184.245 973.097 183.876 972.738 183.677C972.093 183.318 971.233 183.482 970.745 184.13L969.455 185.718C962.965 193.737 955.926 202.953 948.871 210.367L948.863 210.375C945.019 214.504 941.153 217.996 937.664 220.4C934.124 222.841 931.161 224.029 929.072 223.869L929.073 223.868C927.525 223.746 926.91 223.186 926.634 222.588C926.308 221.88 926.308 220.814 926.636 219.447C927.286 216.734 928.996 213.667 929.886 211.888L930.4 210.887C935.755 200.585 942.293 191.474 948.729 181.72L1016.77 78.6279L1016.77 78.6211C1021.31 71.6238 1029.04 60.3107 1032.78 55.624L1031.33 54.2529C1028.19 57.0498 1022.46 58.5139 1017.79 57.7949L1017.73 58.1426C1017.31 58.0001 1016.92 58.0681 1016.9 58.0908C1016.89 58.0997 1016.88 58.1125 1016.88 58.1172C1016.87 58.1241 1016.87 58.1307 1016.87 58.1348C1016.85 58.1524 1016.83 58.1849 1016.8 58.2285L1015.93 59.5332L1015.94 59.5352C1015.85 59.6754 1015.75 59.8258 1015.65 59.9863C1014.67 61.4713 1013.12 63.8177 1011.07 66.9092C1006.99 73.0921 1000.93 82.2545 993.508 93.4619C978.671 115.877 958.401 146.473 937.611 177.778L937.604 177.789C931.379 187.419 925.071 197.166 921.244 208.462C920.161 211.614 919.558 216.108 920.387 219.878C920.803 221.773 921.599 223.558 922.955 224.878C924.332 226.218 926.209 227 928.616 227Z" fill="white" stroke="white" stroke-width="2"/>
</svg>
